<?xml version="1.0" encoding="utf-8"?>
<!-- Generator: Adobe Illustrator 18.1.0, SVG Export Plug-In . SVG Version: 6.00 Build 0)  -->
<svg version="1.1" id="Calque_1" xmlns="http://www.w3.org/2000/svg" xmlns:xlink="http://www.w3.org/1999/xlink" x="0px" y="0px"
	 width="64px" height="64px" viewBox="0 0 64 64" enable-background="new 0 0 64 64" xml:space="preserve">
<path fill="#FFFFFF" stroke="#000000" stroke-width="2" stroke-miterlimit="10" d="M32,1C14.9,1,1.1,14.2,1.1,31.5S15,62.9,32,62.9
	c17.1,0,31-14.6,31-31.9S49.1,1,32,1z"/>
<path d="M29.6,34.4c0-1.3,0.2-2.2,0.7-2.9c0.4-0.6,1.3-1.4,2.4-2.2c0.6-0.4,1.1-0.9,1.4-1.4c0.4-0.6,0.5-1.2,0.5-2
	c0-0.8-0.2-1.4-0.6-1.8c-0.4-0.5-1-0.7-1.8-0.7c-0.6,0-1.1,0.2-1.5,0.6c-0.4,0.4-0.6,0.9-0.6,1.7h-4.5l0-0.1c0-1.9,0.6-3.3,1.8-4.3
	c1.2-1,2.9-1.4,4.9-1.4c2.2,0,3.9,0.5,5.1,1.6s1.9,2.6,1.9,4.4c0,1.1-0.3,2.2-1,3.1c-0.7,1-1.5,1.7-2.6,2.3c-0.6,0.4-1,0.8-1.2,1.2
	c-0.2,0.4-0.3,1-0.3,1.8H29.6z M34.2,40.1h-4.6v-3.7h4.6V40.1z"/>
</svg>
