<?xml version="1.0" encoding="utf-8"?>
<!-- Generator: Adobe Illustrator 18.1.0, SVG Export Plug-In . SVG Version: 6.00 Build 0)  -->
<svg version="1.1" id="Calque_1" xmlns="http://www.w3.org/2000/svg" xmlns:xlink="http://www.w3.org/1999/xlink" x="0px" y="0px"
	 width="200px" height="200px" viewBox="0 0 200 200" enable-background="new 0 0 200 200" xml:space="preserve">
<path fill="#676573" d="M157.3,100.8c21.4-38.1,17.9-77.5,17.9-77.5s-44.6,0.3-76,20c-28.4-19.4-75.8-20-75.8-20s0,46.6,19.8,77.5
	c-18.4,24.3-19.8,75.8-19.8,75.8s43.2,1.9,75.8-19.7c34.2,22.8,77.3,19.4,77.3,19.4S177.7,138.7,157.3,100.8z M160.2,160.3
	c0,0-32.5-2.1-60.9-21c-27.1,18-59.1,21-59.1,21s3.7-39.3,19-59.4c-16.4-25.7-19-60.6-19-60.6s35.4,3.9,59,20c26.1-16.4,60-20,60-20
	s-0.2,28.3-18,60C158.2,131.8,160.2,160.3,160.2,160.3z"/>
<circle fill="#676573" cx="100" cy="99.9" r="19"/>
</svg>
