<?xml version="1.0" encoding="utf-8"?>
<!-- Generator: Adobe Illustrator 18.1.0, SVG Export Plug-In . SVG Version: 6.00 Build 0)  -->
<svg version="1.1" id="Calque_1" xmlns="http://www.w3.org/2000/svg" xmlns:xlink="http://www.w3.org/1999/xlink" x="0px" y="0px"
	 width="64px" height="64px" viewBox="0 0 64 64" enable-background="new 0 0 64 64" xml:space="preserve">
<path d="M63,22c0.8,0.8,1,1.8,1,3v13c0,1.2-0.1,2.4-1,3c-0.8,0.5-1.8,1-3,1H43v18c0,1.8-0.2,2.2-1,3c-0.8,0.8-2.7,1-3.9,1H25
	c-1.2,0-2.2-0.2-3-1c-0.8-0.8-1-1.8-1-3V42H4c-1.2,0-2.1-0.2-3-1c-0.8-0.8-1-1.8-1-3V25.4c0-1.2,0.2-2.6,1-3.4c0.8-0.8,1.8-1,3-1h17
	V4c0-1.2,0.2-2.2,1-3c0.8-0.8,2.2-1,3.4-1h13.2c1.2,0,2.6,0.2,3.4,1c0.8,0.8,1,1.5,1,3v17h17C61.2,21,62.2,21.2,63,22z"/>
</svg>
